<?xml version="1.0" standalone="no"?><!DOCTYPE svg PUBLIC "-//W3C//DTD SVG 1.1//EN" "http://www.w3.org/Graphics/SVG/1.1/DTD/svg11.dtd"><svg class="icon" height="512" viewBox="0 0 1024 1024" version="1.1" xmlns="http://www.w3.org/2000/svg"><path d="M364.8 785.6H179.2c-16 0-28.8-12.8-28.8-28.8s12.8-28.8 28.8-28.8h185.6c16 0 28.8 12.8 28.8 28.8s-12.8 28.8-28.8 28.8zM395.2 526.4H179.2c-16 0-28.8-12.8-28.8-28.8s12.8-28.8 28.8-28.8h216c16 0 28.8 12.8 28.8 28.8s-12.8 28.8-28.8 28.8zM628.8 267.2H179.2c-16 0-28.8-12.8-28.8-28.8s12.8-28.8 28.8-28.8h449.6c16 0 28.8 12.8 28.8 28.8-1.6 16-14.4 28.8-28.8 28.8z" fill="" /><path d="M78.4 960c-8 0-16-6.4-16-16v-864c0-8 6.4-16 16-16H723.2c8 0 16 6.4 16 16v193.6c0 17.6 14.4 32 32 32s32-14.4 32-32V80C803.2 35.2 768 0 724.8 0H78.4C35.2 0 0 36.8 0 80v864C0 988.8 35.2 1024 78.4 1024h299.2c17.6 0 32-14.4 32-32s-14.4-32-32-32H78.4z" fill="" /><path d="M1014.4 966.4l-152-153.6c35.2-41.6 56-96 56-153.6 0-131.2-104-236.8-232-236.8s-232 105.6-232 236.8c0 131.2 104 236.8 232 236.8 46.4 0 89.6-14.4 126.4-38.4l155.2 156.8c12.8 12.8 33.6 12.8 46.4 0s12.8-35.2 0-48z m-329.6-139.2c-91.2 0-166.4-75.2-166.4-169.6 0-92.8 73.6-169.6 166.4-169.6 91.2 0 166.4 75.2 166.4 169.6s-73.6 169.6-166.4 169.6z" fill="" /></svg>